Coordinates
version=1
nRows=16
nColumns=40
inDegrees=yes

Units are S.I. units (second, meters, Newtons, ...)
Angles are in degrees.

endheader
time	pelvis_tilt	pelvis_list	pelvis_rotation	pelvis_tx	pelvis_ty	pelvis_tz	hip_flexion_r	hip_adduction_r	hip_rotation_r	knee_angle_r	knee_angle_r_beta	ankle_angle_r	subtalar_angle_r	mtp_angle_r	hip_flexion_l	hip_adduction_l	hip_rotation_l	knee_angle_l	knee_angle_l_beta	ankle_angle_l	subtalar_angle_l	mtp_angle_l	lumbar_extension	lumbar_bending	lumbar_rotation	arm_flex_r	arm_add_r	arm_rot_r	elbow_flex_r	pro_sup_r	wrist_flex_r	wrist_dev_r	arm_flex_l	arm_add_l	arm_rot_l	elbow_flex_l	pro_sup_l	wrist_flex_l	wrist_dev_l
     11.85000000	     -4.18281931	     -4.47427739	      9.15429375	      0.90025995	      0.91582279	      0.55123783	      3.95574897	      6.27762257	    -18.26361836	     19.00095387	     19.00095387	     20.19562524	     -4.76640413	     -1.30959036	     30.26528529	     -5.48211368	      0.45642085	     15.75930037	     15.75930037	      0.81918361	     -2.59973060	      0.64680116	     -9.36618231	      4.27355067	      4.07186404	     58.40061289	    -19.48806184	     -6.46079102	     70.64153586	     43.72771762	      0.00000000	      0.00000000	    -20.09378425	     -8.38921956	     16.37266285	     29.74159982	     42.88420396	      0.00000000	      0.00000000
     11.87085714	     -4.38000640	     -4.45571461	      9.17594009	      0.90117108	      0.91461568	      0.54911251	      3.57744439	      6.19791625	    -18.16494994	     18.89775563	     18.89775563	     20.53880813	     -4.77977515	     -1.38851775	     30.26586669	     -5.28541799	      0.56518334	     16.24367865	     16.24367865	      0.37203471	     -2.75563309	      0.61507068	     -9.16295839	      3.97724295	      4.27289096	     59.29560460	    -19.46984935	     -6.46764913	     70.95944172	     43.72534280	      0.00000000	      0.00000000	    -19.96559614	     -8.33179822	     16.40605267	     29.73007829	     42.88829378	      0.00000000	      0.00000000
     11.89171429	     -4.38511982	     -4.64995975	      9.16814332	      0.90222318	      0.91339948	      0.54686537	      3.03683248	      6.34467029	    -18.11390046	     18.83632160	     18.83632160	     20.80049264	     -4.68620863	     -1.47082809	     30.54492336	     -5.27249949	      1.24010432	     17.62900317	     17.62900317	      0.00298750	     -4.07206492	      0.02678247	     -9.26501351	      3.97862817	      4.34610094	     60.39213388	    -19.30907379	     -6.32554119	     71.50674933	     43.72569919	      0.00000000	      0.00000000	    -19.65432724	     -8.20012749	     16.55459968	     29.45007834	     42.90251415	      0.00000000	      0.00000000
     11.91257143	     -4.51302839	     -4.67412172	      9.13485880	      0.90356466	      0.91241943	      0.54428501	      2.55149785	      6.26445214	    -18.05181539	     18.72928844	     18.72928844	     20.99434544	     -4.56358932	     -1.67125683	     30.56064961	     -4.97464839	      2.15980909	     18.38167586	     18.38167586	     -1.10440390	     -6.24409169	     -1.48178736	     -9.14185641	      3.77568638	      4.52073366	     61.02327788	    -19.48398161	     -5.76712930	     71.84618664	     43.81001976	      0.00000000	      0.00000000	    -18.95641867	     -8.07415024	     17.00059547	     28.32814415	     43.01863987	      0.00000000	      0.00000000
     11.93342857	     -4.56305967	     -4.74459467	      9.02128053	      0.90511962	      0.91175039	      0.54177804	      1.97635341	      6.24591266	    -17.93270962	     18.61405382	     18.61405382	     21.15255395	     -4.44415945	     -1.71412496	     30.76855096	     -4.89670739	      2.53255955	     19.74054542	     19.74054542	     -1.05167464	     -7.28160369	     -1.62864921	     -9.14239685	      3.59197545	      4.67024870	     61.52401102	    -19.43972199	     -5.71951284	     71.96331455	     43.82041972	      0.00000000	      0.00000000	    -18.62755724	     -8.16094460	     17.00430687	     28.32989161	     43.04344267	      0.00000000	      0.00000000
     11.95428571	     -4.70125957	     -4.81774650	      8.92068885	      0.90671813	      0.91129133	      0.53902523	      1.47385024	      6.18741140	    -17.83908126	     18.45991146	     18.45991146	     21.17578181	     -4.21149986	     -1.76707316	     31.02238364	     -4.73313856	      3.11440418	     21.00760349	     21.00760349	     -0.92672656	     -8.60138643	     -1.47705251	     -9.04476309	      3.44236894	      4.84301900	     61.87933510	    -19.43438523	     -5.55852572	     71.89453497	     43.83677553	      0.00000000	      0.00000000	    -18.17949719	     -8.26954036	     17.00184617	     28.28301059	     43.07757905	      0.00000000	      0.00000000
     11.97514286	     -4.87987978	     -4.78210589	      8.74119508	      0.90843988	      0.91119721	      0.53603351	      1.02159244	      5.92100815	    -17.89002522	     18.37875428	     18.37875428	     21.05070566	     -3.74018827	     -2.22214906	     31.20076469	     -4.40233311	      3.83012276	     22.19333662	     22.19333662	     -0.20743027	    -10.11275462	      0.13747260	     -8.90863972	      3.19160683	      4.94711653	     62.26212175	    -19.51220859	     -4.83209314	     71.27530153	     43.93543279	      0.00000000	      0.00000000	    -17.60249323	     -8.33061649	     17.02217962	     27.77983606	     43.23312025	      0.00000000	      0.00000000
     11.99600000	     -5.01730478	     -4.84056536	      8.48644146	      0.91033830	      0.91133197	      0.53310032	      0.53040723	      5.77449481	    -17.79822932	     18.28343459	     18.28343459	     20.89621825	     -3.37604815	     -2.29234519	     31.30884845	     -4.29596145	      4.15228085	     23.29031901	     23.29031901	      0.30672381	    -11.10767147	      0.32222594	     -8.82445816	      3.04852018	      5.20198271	     62.40570319	    -19.55409230	     -4.73038049	     70.96636516	     43.96400611	      0.00000000	      0.00000000	    -17.14817400	     -8.54189684	     16.94335110	     27.86211897	     43.28189494	      0.00000000	      0.00000000
     12.01685714	     -5.19048425	     -4.84173124	      8.18037024	      0.91229087	      0.91168165	      0.52996878	      0.11208843	      5.48882966	    -17.80974632	     18.28598111	     18.28598111	     20.68560428	     -2.79823928	     -2.55501531	     31.33587988	     -4.10680621	      4.48705999	     24.23045069	     24.23045069	      1.03226950	    -12.13895577	      0.98751297	     -8.70007774	      2.88682604	      5.47431956	     62.53395474	    -19.62616030	     -4.47739585	     70.30730053	     44.00694205	      0.00000000	      0.00000000	    -16.69242550	     -8.76831934	     16.84299778	     27.91410835	     43.34529314	      0.00000000	      0.00000000
     12.03771429	     -5.39814519	     -4.74500474	      7.79437241	      0.91428617	      0.91227933	      0.52672420	     -0.22172235	      5.01228918	    -17.93014016	     18.40805537	     18.40805537	     20.28695972	     -2.04890393	     -3.29851591	     31.26992154	     -3.86747775	      4.58157480	     25.02492816	     25.02492816	      2.25060171	    -12.74638901	      2.68203413	     -8.52896715	      2.61115805	      5.54427445	     62.72329220	    -19.52443542	     -3.92316912	     69.02114799	     44.09560212	      0.00000000	      0.00000000	    -16.33540801	     -8.98457850	     16.65986977	     27.95016029	     43.46983047	      0.00000000	      0.00000000
     12.05857143	     -5.54544220	     -4.74784974	      7.37422944	      0.91638017	      0.91298779	      0.52352167	     -0.56923359	      4.71229266	    -17.67447353	     18.56377825	     18.56377825	     19.96990950	     -1.82484529	     -3.31936967	     31.05115976	     -3.81488533	      4.46499184	     25.59290112	     25.59290112	      2.90612056	    -13.22811102	      2.54455227	     -8.46167957	      2.49598495	      5.65466713	     62.55048688	    -19.32215427	     -3.82634250	     68.83540792	     44.10384468	      0.00000000	      0.00000000	    -15.96807110	     -9.24110468	     16.58752643	     28.05053572	     43.49470999	      0.00000000	      0.00000000
     12.07942857	     -5.75027625	     -4.70973199	      6.96110048	      0.91836276	      0.91369237	      0.52006294	     -0.80877659	      4.24269691	    -17.78531613	     18.78832635	     18.78832635	     19.18711595	     -1.22050639	     -4.98301497	     30.94675525	     -3.66870114	      4.37842029	     26.32765160	     26.32765160	      4.49041444	    -13.36395427	      4.64111523	     -8.28898829	      2.38133523	      5.50718914	     62.84936880	    -18.91401002	     -3.53404376	     67.02564869	     44.25932678	      0.00000000	      0.00000000	    -15.86614435	     -9.46828667	     16.13730946	     28.54598043	     43.71024805	      0.00000000	      0.00000000
     12.10028571	     -5.90707666	     -4.74649304	      6.52186726	      0.92044495	      0.91460180	      0.51664236	     -1.06222061	      3.92588391	    -17.52344430	     19.05115665	     19.05115665	     18.77443961	     -1.01236905	     -4.97596007	     30.56780493	     -3.64615120	      4.20279462	     26.58258891	     26.58258891	      5.09077221	    -13.71181551	      4.45439733	     -8.18738086	      2.38127120	      5.56548649	     62.44173646	    -18.74763973	     -3.47126999	     66.82086289	     44.26580794	      0.00000000	      0.00000000	    -15.47673261	     -9.73935404	     16.06083227	     28.66592334	     43.73214735	      0.00000000	      0.00000000
     12.12114286	     -6.12868865	     -4.83527443	      6.17504340	      0.92242030	      0.91548200	      0.51295274	     -1.24080063	      3.65306034	    -17.32959022	     19.27484103	     19.27484103	     18.26310979	     -0.82923997	     -4.90013990	     30.20640615	     -3.61777949	      4.05898515	     26.68395007	     26.68395007	      5.62557165	    -13.97121195	      4.29223068	     -8.03002755	      2.51372730	      5.38004931	     62.19089639	    -18.76365196	     -3.47918277	     66.69319278	     44.27052773	      0.00000000	      0.00000000	    -15.19068975	     -9.90789595	     16.01816159	     28.75513963	     43.74406280	      0.00000000	      0.00000000
     12.14200000	     -6.16584385	     -4.57167740	      5.60427189	      0.92448860	      0.91654245	      0.50933816	     -1.33710380	      2.78223434	    -17.29388907	     20.18373516	     20.18373516	     17.89127405	     -0.10486897	     -5.81645528	     29.55920078	     -3.36912744	      3.52815418	     26.82952087	     26.82952087	      6.32956015	    -14.12940910	      4.44288908	     -7.96897606	      2.18645246	      5.95069854	     61.21802420	    -19.01234169	     -3.80226048	     65.37919044	     44.33915241	      0.00000000	      0.00000000	    -14.60581078	    -10.40774234	     15.73648271	     29.35926892	     43.81388169	      0.00000000	      0.00000000
     12.16285714	     -6.24897601	     -4.70407659	      5.19862285	      0.92652464	      0.91759527	      0.50558971	     -1.58124523	      2.50363951	    -17.09484452	     20.53516809	     20.53516809	     17.35490586	      0.20555889	     -5.98280526	     29.01343694	     -3.41278199	      3.31594410	     26.89646426	     26.89646426	      6.86045806	    -14.39154695	      4.40593684	     -7.87977068	      2.42498739	      5.78429058	     60.36333280	    -18.81547184	     -3.82171747	     64.95058828	     44.35466933	      0.00000000	      0.00000000	    -14.15889417	    -10.62638617	     15.64707822	     29.60249292	     43.83858111	      0.00000000	      0.00000000
